<?xml version="1.0" encoding="iso-8859-1"?>
<!-- Generator: Adobe Illustrator 19.0.0, SVG Export Plug-In . SVG Version: 6.00 Build 0)  -->
<svg version="1.1" id="Layer_1" xmlns="http://www.w3.org/2000/svg" xmlns:xlink="http://www.w3.org/1999/xlink" x="0px" y="0px"
	 viewBox="0 0 512.001 512.001" style="enable-background:new 0 0 512.001 512.001;" xml:space="preserve">
<g>
	<g>
		<path d="M335.376,256.001L512,79.376L432.625,0L256.001,176.624L79.376,0L0,79.376l176.624,176.624L0,432.625l79.376,79.376
			l176.624-176.625L432.625,512l79.376-79.376L335.376,256.001z M432.625,489.991L256.001,313.367L79.376,489.991L22.01,432.625
			l176.624-176.624L22.009,79.376L79.375,22.01l176.626,176.624L432.625,22.009l57.366,57.366L313.367,256.001l176.624,176.624
			L432.625,489.991z"/>
	</g>
</g>
<g>
	<g>
		<polygon points="145.749,387.477 78.733,454.493 68.121,443.88 57.116,454.884 78.733,476.502 156.754,398.482 		"/>
	</g>
</g>
<g>
	<g>
		
			<rect x="155.971" y="369.076" transform="matrix(0.7071 -0.7071 0.7071 0.7071 -217.4583 228.7246)" width="22.789" height="15.563"/>
	</g>
</g>
<g>
</g>
<g>
</g>
<g>
</g>
<g>
</g>
<g>
</g>
<g>
</g>
<g>
</g>
<g>
</g>
<g>
</g>
<g>
</g>
<g>
</g>
<g>
</g>
<g>
</g>
<g>
</g>
<g>
</g>
</svg>
