<?xml version="1.0" encoding="iso-8859-1"?>
<!-- Generator: Adobe Illustrator 19.0.0, SVG Export Plug-In . SVG Version: 6.00 Build 0)  -->
<svg version="1.1" id="Layer_1" xmlns="http://www.w3.org/2000/svg" xmlns:xlink="http://www.w3.org/1999/xlink" x="0px" y="0px"
	 viewBox="0 0 512 512" style="enable-background:new 0 0 512 512;" xml:space="preserve">
<g>
	<g>
		<rect x="55.22" y="45.769" width="14.198" height="15.243"/>
	</g>
</g>
<g>
	<g>
		<rect x="146.118" y="63.593" width="14.198" height="15.243"/>
	</g>
</g>
<g>
	<g>
		<rect x="87.809" y="131.119" width="14.198" height="15.243"/>
	</g>
</g>
<g>
	<g>
		<rect x="438.507" y="348.716" width="14.198" height="15.243"/>
	</g>
</g>
<g>
	<g>
		<rect x="387.21" y="421.293" width="14.199" height="15.243"/>
	</g>
</g>
<g>
	<g>
		<path d="M498.101,159.809L363.149,24.859c-8.978-8.978-20.914-13.923-33.612-13.923c-12.696,0-24.632,4.945-33.612,13.923
			L154.924,165.862L13.921,306.864C4.944,315.841,0,327.779,0,340.475s4.944,24.633,13.921,33.611l111.735,111.735H10.947v15.243
			h129.952h83.169h96.234v-15.243h-80.991l112.397-112.397l146.393-146.392C516.633,208.498,516.633,178.343,498.101,159.809z
			 M217.755,485.821h-70.542L24.701,363.308c-6.099-6.098-9.458-14.207-9.458-22.833s3.359-16.735,9.458-22.833l135.613-135.614
			l90.309,90.308l90.309,90.308L217.755,485.821z M487.322,216.254L351.708,351.866l-90.309-90.308l-90.309-90.308L306.704,35.637
			c6.1-6.098,14.208-9.458,22.834-9.458s16.735,3.359,22.833,9.458l134.951,134.95C499.911,183.178,499.911,203.663,487.322,216.254
			z"/>
	</g>
</g>
<g>
	<g>
		
			<rect x="48.821" y="270.765" transform="matrix(0.7071 -0.7071 0.7071 0.7071 -169.049 148.6526)" width="92.188" height="15.243"/>
	</g>
</g>
<g>
	<g>
		
			<rect x="411.404" y="241.325" transform="matrix(0.7071 -0.7071 0.7071 0.7071 -51.9315 372.5192)" width="24.602" height="15.243"/>
	</g>
</g>
<g>
	<g>
		<path d="M473.817,176.589l-10.576-10.576l-10.779,10.778l10.578,10.578c1.529,1.529,2.372,3.562,2.372,5.724
			c0,2.162-0.842,4.194-2.372,5.723l-22.818,22.819L451,232.411l22.817-22.818c4.408-4.408,6.837-10.269,6.837-16.502
			S478.225,180.998,473.817,176.589z"/>
	</g>
</g>
<g>
	<g>
		
			<rect x="35.572" y="320.393" transform="matrix(0.7071 -0.7071 0.7071 0.7071 -218.6872 128.0706)" width="19.358" height="15.242"/>
	</g>
</g>
<g>
	<g>
		<rect x="346.786" y="485.821" width="80.869" height="15.243"/>
	</g>
</g>
<g>
</g>
<g>
</g>
<g>
</g>
<g>
</g>
<g>
</g>
<g>
</g>
<g>
</g>
<g>
</g>
<g>
</g>
<g>
</g>
<g>
</g>
<g>
</g>
<g>
</g>
<g>
</g>
<g>
</g>
</svg>
