<?xml version="1.0" encoding="iso-8859-1"?>
<!-- Generator: Adobe Illustrator 18.0.0, SVG Export Plug-In . SVG Version: 6.00 Build 0)  -->
<!DOCTYPE svg PUBLIC "-//W3C//DTD SVG 1.1//EN" "http://www.w3.org/Graphics/SVG/1.1/DTD/svg11.dtd">
<svg version="1.1" id="Capa_1" xmlns="http://www.w3.org/2000/svg" xmlns:xlink="http://www.w3.org/1999/xlink" x="0px" y="0px"
	 viewBox="0 0 490 490" style="enable-background:new 0 0 490 490;" xml:space="preserve">
<g>
	<g id="XMLID_105_">
		<path d="M330.759,283.262c-31.786,0-63.568-12.098-87.764-36.295c-48.393-48.393-48.393-127.131,0-175.525
			c48.393-48.39,127.131-48.393,175.525,0c48.39,48.393,48.39,127.131,0,175.525l0,0
			C394.323,271.164,362.541,283.262,330.759,283.262z M330.759,50.392c-27.883,0-55.755,10.609-76.98,31.834
			c-42.447,42.447-42.447,111.51,0,153.957c42.447,42.439,111.503,42.447,153.957,0c42.443-42.447,42.443-111.51,0-153.957
			C386.514,61.005,358.631,50.392,330.759,50.392z"/>
	</g>
	<g id="XMLID_457_">
		<path d="M330.755,318.373c-40.778,0-81.557-15.524-112.601-46.569c-62.089-62.086-62.089-163.11,0-225.199
			s163.114-62.089,225.203,0C473.433,76.682,490,116.671,490,159.203c0,42.536-16.567,82.525-46.643,112.601l0,0l0,0
			C412.312,302.849,371.534,318.373,330.755,318.373z M330.755,15.281c-36.872,0-73.744,14.038-101.818,42.108
			c-56.139,56.142-56.139,147.489,0,203.631c56.146,56.139,147.489,56.139,203.635,0l0,0
			c27.194-27.194,42.175-63.355,42.175-101.818c0-38.459-14.98-74.62-42.175-101.814C404.5,29.32,367.628,15.281,330.755,15.281z"/>
	</g>
	<g id="XMLID_573_">
		<path d="M36.608,489.962L0,453.35l133.577-133.577l36.612,36.608L36.608,489.962z M21.568,453.35l15.04,15.044l112.013-112.013
			l-15.044-15.04L21.568,453.35z"/>
	</g>
	<g id="XMLID_578_">
		
			<rect x="176.782" y="264.979" transform="matrix(0.7071 0.7071 -0.7071 0.7071 270.0843 -40.8958)" width="15.251" height="81.188"/>
	</g>
	<g id="XMLID_624_">
		<path d="M314.933,244.487c-5.727-1.058-11.35-2.7-16.716-4.874l5.735-14.135c4.413,1.791,9.037,3.139,13.752,4.01L314.933,244.487
			z"/>
	</g>
	<g id="XMLID_593_">
		<path d="M328.003,245.928v-15.252c40,0,74.221-31.679,74.221-76.679h15.252C417.477,206.997,375.003,245.928,328.003,245.928z"/>
	</g>
</g>
<g>
</g>
<g>
</g>
<g>
</g>
<g>
</g>
<g>
</g>
<g>
</g>
<g>
</g>
<g>
</g>
<g>
</g>
<g>
</g>
<g>
</g>
<g>
</g>
<g>
</g>
<g>
</g>
<g>
</g>
</svg>
