<?xml version="1.0" encoding="iso-8859-1"?>
<!-- Generator: Adobe Illustrator 18.0.0, SVG Export Plug-In . SVG Version: 6.00 Build 0)  -->
<!DOCTYPE svg PUBLIC "-//W3C//DTD SVG 1.1//EN" "http://www.w3.org/Graphics/SVG/1.1/DTD/svg11.dtd">
<svg version="1.1" id="Capa_1" xmlns="http://www.w3.org/2000/svg" xmlns:xlink="http://www.w3.org/1999/xlink" x="0px" y="0px"
	 viewBox="0 0 489.504 489.504" style="enable-background:new 0 0 489.504 489.504;" xml:space="preserve">
<g>
	<path d="M473.98,67.332l-55.682-55.682L406.649,0l-11.648,11.649l-29.784,29.785L70.19,336.461l-2.144,2.144l-1.241,2.766
		L21.564,442.295l-17.688,39.46l39.461-17.689l100.923-45.242l2.765-1.24l2.144-2.144L473.98,90.629l11.648-11.648L473.98,67.332z
		 M438.938,102.374L396.01,59.452l-11.643,11.643l42.927,42.922L137.52,403.792L36.597,449.034l41.64-92.889l35.382,35.143
		l11.613-11.688l-37.569-37.315L376.865,53.083l29.784-29.785l55.682,55.682L438.938,102.374z"/>
	<g id="XMLID_712_">
		<rect x="36.631" y="473.504" width="290" height="16"/>
	</g>
	<g id="XMLID_747_">
		<rect x="349.631" y="473.504" width="23" height="16"/>
	</g>
</g>
<g>
</g>
<g>
</g>
<g>
</g>
<g>
</g>
<g>
</g>
<g>
</g>
<g>
</g>
<g>
</g>
<g>
</g>
<g>
</g>
<g>
</g>
<g>
</g>
<g>
</g>
<g>
</g>
<g>
</g>
</svg>
