<svg xmlns="http://www.w3.org/2000/svg" viewBox="0 0 22 22">
  <defs>
    <style>
      .cls-1 {
        fill: #f2f2f2;
      }
    </style>
  </defs>
  <g id="eraser" transform="translate(0 -10.936)">
    <g id="Group_10" data-name="Group 10" transform="translate(2.373 12.5)">
      <g id="Group_9" data-name="Group 9">
        <rect id="Rectangle_21" data-name="Rectangle 21" class="cls-1" width="0.61" height="0.684"/>
      </g>
    </g>
    <g id="Group_12" data-name="Group 12" transform="translate(6.279 13.3)">
      <g id="Group_11" data-name="Group 11" transform="translate(0 0)">
        <rect id="Rectangle_22" data-name="Rectangle 22" class="cls-1" width="0.61" height="0.684"/>
      </g>
    </g>
    <g id="Group_14" data-name="Group 14" transform="translate(3.773 16.331)">
      <g id="Group_13" data-name="Group 13">
        <rect id="Rectangle_23" data-name="Rectangle 23" class="cls-1" width="0.61" height="0.684"/>
      </g>
    </g>
    <g id="Group_16" data-name="Group 16" transform="translate(18.842 26.098)">
      <g id="Group_15" data-name="Group 15">
        <rect id="Rectangle_24" data-name="Rectangle 24" class="cls-1" width="0.61" height="0.684"/>
      </g>
    </g>
    <g id="Group_18" data-name="Group 18" transform="translate(16.638 29.355)">
      <g id="Group_17" data-name="Group 17">
        <rect id="Rectangle_25" data-name="Rectangle 25" class="cls-1" width="0.61" height="0.684"/>
      </g>
    </g>
    <g id="Group_20" data-name="Group 20" transform="translate(0 10.936)">
      <g id="Group_19" data-name="Group 19">
        <path id="Path_46" data-name="Path 46" class="cls-1" d="M21.4,17.618l-5.8-6.057a1.981,1.981,0,0,0-2.889,0L6.657,17.89.6,24.219a2.2,2.2,0,0,0,0,3.017l4.8,5.015H.47v.684H13.763v-.684h-3.48l4.83-5.045,6.29-6.571A2.2,2.2,0,0,0,21.4,17.618ZM9.357,32.252H6.326l-5.264-5.5a1.5,1.5,0,0,1,0-2.05l5.827-6.087,3.88,4.054,3.88,4.054Zm11.583-12.1-5.827,6.087-3.88-4.054-3.88-4.054,5.827-6.087a1.346,1.346,0,0,1,1.962,0l5.8,6.057A1.5,1.5,0,0,1,20.94,20.152Z" transform="translate(0 -10.936)"/>
      </g>
    </g>
    <g id="Group_22" data-name="Group 22" transform="translate(2.367 21.236)">
      <g id="Group_21" data-name="Group 21" transform="translate(0 0)">
        <path id="Path_49" data-name="Path 49" class="cls-1" d="M.016.1,4.066.007l-.015.67L0,.765Z" transform="translate(0 2.87) rotate(-45)"/>
      </g>
    </g>
    <g id="Group_24" data-name="Group 24" transform="translate(17.571 20.987)">
      <g id="Group_23" data-name="Group 23" transform="translate(0 0)">
        <path id="Path_50" data-name="Path 50" class="cls-1" d="M.016.026,1.1,0l-.015.67L0,.7Z" transform="translate(0 0.774) rotate(-45)"/>
      </g>
    </g>
    <g id="Group_26" data-name="Group 26" transform="translate(18.916 17.897)">
      <g id="Group_25" data-name="Group 25">
        <path id="Path_47" data-name="Path 47" class="cls-1" d="M441.666,166.488l-.454-.475-.463.484.455.475a.375.375,0,0,1,0,.514l-.98,1.024.463.484.98-1.024a1.081,1.081,0,0,0,0-1.481Z" transform="translate(-440.222 -166.013)"/>
      </g>
    </g>
    <g id="Group_28" data-name="Group 28" transform="translate(1.393 24.619)">
      <g id="Group_27" data-name="Group 27" transform="translate(0 0)">
        <path id="Path_51" data-name="Path 51" class="cls-1" d="M.016.02.866,0,.852.671,0,.69Z" transform="translate(0 0.611) rotate(-45)"/>
      </g>
    </g>
    <g id="Group_30" data-name="Group 30" transform="translate(14.901 32.252)">
      <g id="Group_29" data-name="Group 29">
        <rect id="Rectangle_29" data-name="Rectangle 29" class="cls-1" width="3.475" height="0.684"/>
      </g>
    </g>
  </g>
</svg>
