<svg xmlns="http://www.w3.org/2000/svg" viewBox="0 0 93.275 97.937">
  <defs>
    <style>
      .cls-1 {
        opacity: 0.418;
      }

      .cls-2 {
        fill: #bfd7ea;
      }
    </style>
  </defs>
  <g id="bg" transform="translate(-0.131 -74)">
    <g id="Group_46" data-name="Group 46" class="cls-1" transform="translate(24.075 74)">
      <path id="Path_57" data-name="Path 57" class="cls-2" d="M105.976,98A5.051,5.051,0,0,0,98.8,98a5.131,5.131,0,0,0-1.5,3.59,5.009,5.009,0,0,0,1.5,3.59l19.363,19.363h0a5.084,5.084,0,1,0,7.179-7.2Zm17.189,24.368a2.03,2.03,0,0,1-2.851,0h0L100.951,103a1.971,1.971,0,0,1-.595-1.415,1.937,1.937,0,0,1,.595-1.415,2.03,2.03,0,0,1,2.851,0l19.363,19.363A2.006,2.006,0,0,1,123.165,122.365Z" transform="translate(-77.402 -76.706)"/>
      <path id="Path_58" data-name="Path 58" class="cls-2" d="M14.134,31.3,6.545,23.711A12.092,12.092,0,0,1,15.119,3.077,12.005,12.005,0,0,1,23.672,6.6l7.589,7.589a12.132,12.132,0,0,1,3.343,10.728l3.036.554A15.252,15.252,0,0,0,33.456,12.02L25.867,4.431a15.193,15.193,0,0,0-21.5,21.476L11.96,33.5A15.148,15.148,0,0,0,25.7,37.618L25.108,34.6A12.1,12.1,0,0,1,14.134,31.3Z"/>
      <path id="Path_59" data-name="Path 59" class="cls-2" d="M46.17,39.093l6.851,6.851,2.174-2.174-6.851-6.851A8.079,8.079,0,0,0,36.919,48.344l7.1,7.1,2.174-2.174-7.1-7.1a5,5,0,1,1,7.077-7.077Z" transform="translate(-27.523 -27.463)"/>
      <path id="Path_60" data-name="Path 60" class="cls-2" d="M179.345,156.62a15.14,15.14,0,0,0-13.661-4.143l.595,3.015a12.11,12.11,0,0,1,10.912,3.3l7.589,7.589a12.1,12.1,0,0,1-17.107,17.107l-7.589-7.589a12.085,12.085,0,0,1-3.323-10.769l-3.036-.554A15.24,15.24,0,0,0,157.91,178.1l7.589,7.589a15.171,15.171,0,0,0,21.455-21.455Z" transform="translate(-122.054 -120.971)"/>
      <path id="Path_61" data-name="Path 61" class="cls-2" d="M211.866,217.207l-6.892-6.892-2.174,2.174,6.892,6.892a8.093,8.093,0,0,0,11.445-11.445L214.1,200.9l-2.174,2.174,7.035,7.035a5.051,5.051,0,0,1,0,7.1A5.039,5.039,0,0,1,211.866,217.207Z" transform="translate(-161.262 -159.692)"/>
    </g>
    <g id="Group_47" data-name="Group 47" class="cls-1" transform="translate(35.13 127.944) rotate(90)">
      <path id="Path_57-2" data-name="Path 57" class="cls-2" d="M101.692,97.258a2.557,2.557,0,0,0-3.634,0,2.6,2.6,0,0,0-.758,1.817,2.536,2.536,0,0,0,.758,1.817l9.8,9.8h0a2.573,2.573,0,0,0,3.634-3.644Zm8.7,12.334a1.028,1.028,0,0,1-1.443,0h0l-9.8-9.8a1,1,0,0,1-.3-.716.981.981,0,0,1,.3-.716,1.028,1.028,0,0,1,1.443,0l9.8,9.8A1.015,1.015,0,0,1,110.392,109.592Z" transform="translate(-87.265 -86.481)"/>
      <path id="Path_58-2" data-name="Path 58" class="cls-2" d="M7.117,15.844,3.276,12A6.12,6.12,0,0,1,7.616,1.557a6.077,6.077,0,0,1,4.33,1.786l3.842,3.842a6.141,6.141,0,0,1,1.692,5.43l1.537.28A7.72,7.72,0,0,0,16.9,6.084L13.056,2.243A7.69,7.69,0,0,0,2.175,13.113l3.842,3.842a7.668,7.668,0,0,0,6.956,2.087l-.3-1.526A6.125,6.125,0,0,1,7.117,15.844Z"/>
      <path id="Path_59-2" data-name="Path 59" class="cls-2" d="M40.432,36.85,43.9,40.317l1.1-1.1-3.468-3.468a4.089,4.089,0,0,0-5.783,5.783l3.592,3.592,1.1-1.1L36.85,40.432a2.533,2.533,0,0,1,3.582-3.582Z" transform="translate(-31.03 -30.963)"/>
      <path id="Path_60-2" data-name="Path 60" class="cls-2" d="M166.57,154.431a7.663,7.663,0,0,0-6.915-2.1l.3,1.526a6.13,6.13,0,0,1,5.523,1.672l3.842,3.842a6.123,6.123,0,0,1-8.659,8.659l-3.842-3.842a6.117,6.117,0,0,1-1.682-5.451l-1.537-.28a7.714,7.714,0,0,0,2.118,6.842l3.842,3.842a7.679,7.679,0,0,0,10.86-10.86Z" transform="translate(-137.607 -136.386)"/>
      <path id="Path_61-2" data-name="Path 61" class="cls-2" d="M207.389,209.154l-3.489-3.489-1.1,1.1,3.489,3.489a4.1,4.1,0,0,0,5.793-5.793l-3.561-3.561-1.1,1.1,3.561,3.561a2.557,2.557,0,0,1,0,3.592A2.55,2.55,0,0,1,207.389,209.154Z" transform="translate(-181.811 -180.042)"/>
    </g>
    <g id="Group_48" data-name="Group 48" class="cls-1" transform="translate(45.14 154.936)">
      <path id="Path_57-3" data-name="Path 57" class="cls-2" d="M99.433,96.868a1.242,1.242,0,0,0-1.765,0,1.262,1.262,0,0,0-.368.883,1.232,1.232,0,0,0,.368.883l4.761,4.761h0a1.25,1.25,0,0,0,1.765-1.77Zm4.226,5.992a.5.5,0,0,1-.7,0h0L98.2,98.1a.485.485,0,0,1-.146-.348A.476.476,0,0,1,98.2,97.4a.5.5,0,0,1,.7,0l4.761,4.761A.493.493,0,0,1,103.66,102.86Z" transform="translate(-92.464 -91.633)"/>
      <path id="Path_58-3" data-name="Path 58" class="cls-2" d="M3.419,7.7,1.553,5.83A2.973,2.973,0,0,1,3.661.757a2.952,2.952,0,0,1,2.1.867L7.63,3.49a2.983,2.983,0,0,1,.822,2.638l.746.136A3.75,3.75,0,0,0,8.17,2.955L6.3,1.089A3.736,3.736,0,0,0,1.018,6.37L2.884,8.236A3.725,3.725,0,0,0,6.263,9.25l-.146-.741A2.975,2.975,0,0,1,3.419,7.7Z" transform="translate(0)"/>
      <path id="Path_59-3" data-name="Path 59" class="cls-2" d="M37.407,35.667l1.685,1.685.535-.535-1.685-1.685a1.986,1.986,0,1,0-2.809,2.809l1.745,1.745.535-.535-1.745-1.745a1.23,1.23,0,0,1,1.74-1.74Z" transform="translate(-32.879 -32.808)"/>
      <path id="Path_60-3" data-name="Path 60" class="cls-2" d="M159.836,153.277a3.723,3.723,0,0,0-3.359-1.019l.146.741a2.978,2.978,0,0,1,2.683.812l1.866,1.866a2.974,2.974,0,0,1-4.206,4.206l-1.866-1.866a2.971,2.971,0,0,1-.817-2.648l-.746-.136a3.747,3.747,0,0,0,1.029,3.324l1.866,1.866a3.73,3.73,0,0,0,5.275-5.275Z" transform="translate(-145.806 -144.512)"/>
      <path id="Path_61-3" data-name="Path 61" class="cls-2" d="M205.029,204.91l-1.695-1.695-.535.535,1.695,1.695a1.99,1.99,0,0,0,2.814-2.814l-1.73-1.73-.535.535,1.73,1.73a1.242,1.242,0,0,1,0,1.745A1.239,1.239,0,0,1,205.029,204.91Z" transform="translate(-192.643 -190.768)"/>
    </g>
  </g>
</svg>
