<svg xmlns="http://www.w3.org/2000/svg" viewBox="0 0 376 126.425">
  <defs>
    <style>
      .cls-1 {
        fill: #bfd7e9;
      }

      .cls-2 {
        fill: #1e2749;
      }

      .cls-3 {
        fill: #669bbc;
      }

      .cls-4 {
        fill: none;
      }
    </style>
  </defs>
  <g id="linkbase-logo" transform="translate(-38.6 -44.6)">
    <path id="Path_31" data-name="Path 31" class="cls-1" d="M146.462,63.163a63.144,63.144,0,1,0-44.649,107.862,62.386,62.386,0,0,0,44.649-18.563,63.1,63.1,0,0,0,18.563-44.649A62.386,62.386,0,0,0,146.462,63.163ZM101.813,167.385a59.451,59.451,0,1,1,59.451-59.451A59.548,59.548,0,0,1,101.813,167.385Z" transform="translate(0 0)"/>
    <path id="Path_32" data-name="Path 32" class="cls-2" d="M86.556,83.92A6.188,6.188,0,0,0,76,88.288a6.157,6.157,0,0,0,1.82,4.368l23.3,23.3h0a6.151,6.151,0,0,0,8.736,0,6.006,6.006,0,0,0,0-8.614Zm20.626,29.24a2.346,2.346,0,0,1-3.4,0h0l-23.3-23.3a2.346,2.346,0,0,1,0-3.4,2.346,2.346,0,0,1,3.4,0l23.3,23.3A2.345,2.345,0,0,1,107.182,113.16Z" transform="translate(7.977 7.999)"/>
    <path id="Path_33" data-name="Path 33" class="cls-2" d="M73.413,100.139l-9.221-9.1A14.585,14.585,0,0,1,84.818,70.413l9.1,9.1a14.525,14.525,0,0,1,4,12.861l3.64.607a17.985,17.985,0,0,0-5.1-16.137l-8.978-9.1A18.274,18.274,0,0,0,61.644,93.587l9.1,9.1A18.093,18.093,0,0,0,83.6,108.025a18.518,18.518,0,0,0,3.64-.364l-.728-3.64A14.172,14.172,0,0,1,73.413,100.139Z" transform="translate(3.77 3.791)"/>
    <path id="Path_34" data-name="Path 34" class="cls-2" d="M77.237,74.965l8.25,8.25,2.669-2.669-8.25-8.25A9.695,9.695,0,0,0,66.2,86.006L74.689,94.5l2.669-2.669-8.493-8.493a6.08,6.08,0,0,1,0-8.493A5.826,5.826,0,0,1,77.237,74.965Z" transform="translate(5.284 5.306)"/>
    <path id="Path_35" data-name="Path 35" class="cls-2" d="M118.694,98.737a18.288,18.288,0,0,0-16.5-4.975l.728,3.64a14.558,14.558,0,0,1,13.1,4l9.1,9.1A14.585,14.585,0,0,1,104.5,131.132l-9.1-9.1a14.656,14.656,0,0,1-4-12.982l-3.64-.728a18.251,18.251,0,0,0,4.974,16.258l9.1,9.1a18.188,18.188,0,1,0,25.722-25.722Z" transform="translate(10.418 10.41)"/>
    <path id="Path_36" data-name="Path 36" class="cls-2" d="M108.42,122.955l-8.25-8.25L97.5,117.374l8.25,8.25a9.523,9.523,0,0,0,6.916,2.791,10.04,10.04,0,0,0,6.916-2.791,9.619,9.619,0,0,0,2.791-6.916,9.825,9.825,0,0,0-2.791-6.916l-8.493-8.493-2.669,2.669,8.493,8.493a6.179,6.179,0,0,1,1.82,4.247,5.691,5.691,0,0,1-1.82,4.247A6.079,6.079,0,0,1,108.42,122.955Z" transform="translate(12.563 12.52)"/>
    <g id="Group_7" data-name="Group 7" transform="translate(196.571 120.552)">
      <path id="Path_37" data-name="Path 37" class="cls-3" d="M210.173,119.976a10.728,10.728,0,0,1-8.493,10.556,12.089,12.089,0,0,1,10.07,12.376c0,8.372-7.28,13.589-18.806,13.589H168.8V107.6h23.3C203.136,107.6,210.173,112.332,210.173,119.976Zm-13.1,2.184c0-2.912-2.184-4.732-5.7-4.611H181.54v9.464h9.828C194.886,127.013,197.07,125.193,197.07,122.16Zm1.456,19.17c0-3.033-2.791-4.975-7.28-4.975h-9.828v10.313h9.828C195.735,146.547,198.526,144.606,198.526,141.33Z" transform="translate(-168.8 -107.115)"/>
      <path id="Path_38" data-name="Path 38" class="cls-3" d="M243.412,147.881H222.3l-3.4,8.614H205.8l20.99-48.9h13.1l20.5,48.9H246.809Zm-3.761-9.828-6.673-17.471-6.794,17.471Z" transform="translate(-160.908 -107.115)"/>
      <path id="Path_39" data-name="Path 39" class="cls-3" d="M272.9,117.513c-3.033,0-5.1,1.092-5.1,3.4,0,8.129,25.722,3.519,25.722,21.111,0,9.949-8.857,15.045-19.655,15.045A37.306,37.306,0,0,1,251.3,149.3l4.974-9.949c4.974,4.368,12.618,7.4,17.714,7.4,3.761,0,6.188-1.456,6.188-4,0-8.25-25.722-3.276-25.722-20.626,0-9.1,7.765-14.924,19.534-14.924a37.6,37.6,0,0,1,19.534,5.46l-4.853,10.07C283.452,119.818,276.9,117.513,272.9,117.513Z" transform="translate(-151.203 -107.2)"/>
      <path id="Path_40" data-name="Path 40" class="cls-3" d="M330.083,107.6v10.192H304.24v9.1h23.3v10.07l-23.3.121V146.3h26.571V156.5H291.5V107.6Z" transform="translate(-142.629 -107.115)"/>
    </g>
    <path id="Path_41" data-name="Path 41" class="cls-4" d="M340.2,131.7h0Z" transform="translate(64.33 18.578)"/>
    <g id="Group_8" data-name="Group 8" transform="translate(196.571 45.328)">
      <path id="Path_42" data-name="Path 42" class="cls-2" d="M176.08,45.2v56.9h27.906v6.673H168.8V45.2Z" transform="translate(-168.8 -45.2)"/>
      <path id="Path_43" data-name="Path 43" class="cls-2" d="M211.28,45.2v63.577H204V45.2Z" transform="translate(-161.292 -45.2)"/>
      <path id="Path_44" data-name="Path 44" class="cls-2" d="M230.422,45.2l38.219,51.686V45.2H275.8v63.577h-7.4L230.18,57.212v51.565H222.9V45.2Z" transform="translate(-157.261 -45.2)"/>
      <path id="Path_45" data-name="Path 45" class="cls-2" d="M322.672,108.9,299.255,78.687,286.88,92.276V108.9H279.6V45.2h7.28V82.205L321.095,45.2h8.614L304.351,72.984,331.529,108.9Z" transform="translate(-145.167 -45.2)"/>
    </g>
  </g>
</svg>
