<svg xmlns="http://www.w3.org/2000/svg" viewBox="0 0 180 60.522">
  <defs>
    <style>
      .cls-1 {
        fill: #bfd7e9;
      }

      .cls-2 {
        fill: #f2f2f2;
      }

      .cls-3 {
        fill: #669bbc;
      }

      .cls-4 {
        fill: none;
      }
    </style>
  </defs>
  <g id="linkbase-logo-light" transform="translate(-38.6 -44.6)">
    <path id="Path_16" data-name="Path 16" class="cls-1" d="M90.236,53.487a30.149,30.149,0,1,0,8.887,21.375A30.105,30.105,0,0,0,90.236,53.487ZM68.861,103.38A28.461,28.461,0,1,1,97.322,74.919,28.507,28.507,0,0,1,68.861,103.38Z"/>
    <path id="Path_17" data-name="Path 17" class="cls-2" d="M81.053,82.971A2.962,2.962,0,0,0,76,85.062a2.948,2.948,0,0,0,.871,2.091L88.023,98.305h0a2.945,2.945,0,0,0,4.182,0,2.875,2.875,0,0,0,0-4.124Zm9.874,14a1.123,1.123,0,0,1-1.626,0h0L78.149,85.817a1.123,1.123,0,0,1,0-1.626,1.123,1.123,0,0,1,1.626,0L90.927,95.343A1.122,1.122,0,0,1,90.927,96.969Z" transform="translate(-15.677 -15.719)"/>
    <path id="Path_18" data-name="Path 18" class="cls-2" d="M64.479,80.453,60.065,76.1a6.982,6.982,0,0,1,9.874-9.874L74.3,70.579a6.953,6.953,0,0,1,1.917,6.157l1.742.29A8.61,8.61,0,0,0,75.515,69.3l-4.3-4.356A8.748,8.748,0,0,0,58.845,77.317L63.2,81.673a8.661,8.661,0,0,0,6.157,2.556,8.864,8.864,0,0,0,1.742-.174l-.348-1.743A6.784,6.784,0,0,1,64.479,80.453Z" transform="translate(-7.409 -7.451)"/>
    <path id="Path_19" data-name="Path 19" class="cls-2" d="M70.011,72.1l3.95,3.95,1.278-1.278-3.95-3.95a4.641,4.641,0,0,0-6.563,6.563l4.066,4.066,1.278-1.278L66,76.111a2.91,2.91,0,0,1,0-4.066A2.789,2.789,0,0,1,70.011,72.1Z" transform="translate(-10.385 -10.427)"/>
    <path id="Path_20" data-name="Path 20" class="cls-2" d="M102.4,95.958a8.755,8.755,0,0,0-7.9-2.381l.348,1.743a6.969,6.969,0,0,1,6.273,1.917l4.356,4.356a6.982,6.982,0,0,1-9.874,9.874l-4.356-4.356a7.016,7.016,0,0,1-1.917-6.215l-1.743-.348a8.737,8.737,0,0,0,2.381,7.783l4.356,4.356a8.707,8.707,0,1,0,12.314-12.314Z" transform="translate(-20.474 -20.458)"/>
    <path id="Path_21" data-name="Path 21" class="cls-2" d="M102.727,112.71l-3.95-3.95L97.5,110.038l3.95,3.95a4.559,4.559,0,0,0,3.311,1.336,4.806,4.806,0,0,0,3.311-1.336,4.6,4.6,0,0,0,1.336-3.311,4.7,4.7,0,0,0-1.336-3.311l-4.066-4.066-1.278,1.278,4.066,4.066a2.958,2.958,0,0,1,.871,2.033,2.725,2.725,0,0,1-.871,2.033A2.91,2.91,0,0,1,102.727,112.71Z" transform="translate(-24.689 -24.605)"/>
    <g id="Group_5" data-name="Group 5" transform="translate(114.224 80.96)">
      <path id="Path_22" data-name="Path 22" class="cls-3" d="M188.606,113.524a5.136,5.136,0,0,1-4.066,5.053,5.787,5.787,0,0,1,4.821,5.925c0,4.008-3.485,6.505-9,6.505H168.8V107.6h11.152C185.238,107.6,188.606,109.865,188.606,113.524Zm-6.273,1.046c0-1.394-1.045-2.265-2.73-2.207h-4.7v4.53h4.7C181.288,116.893,182.333,116.022,182.333,114.57Zm.7,9.177c0-1.452-1.336-2.381-3.485-2.381h-4.7V126.3h4.7C181.695,126.245,183.03,125.315,183.03,123.747Z" transform="translate(-168.8 -107.368)"/>
      <path id="Path_23" data-name="Path 23" class="cls-3" d="M223.806,126.884H213.7l-1.626,4.124H205.8L215.848,107.6h6.273l9.816,23.408h-6.505Zm-1.8-4.7-3.195-8.364-3.253,8.364Z" transform="translate(-184.309 -107.368)"/>
      <path id="Path_24" data-name="Path 24" class="cls-3" d="M261.639,112.137c-1.452,0-2.439.523-2.439,1.626,0,3.892,12.314,1.684,12.314,10.106,0,4.763-4.24,7.2-9.409,7.2a17.859,17.859,0,0,1-10.8-3.717l2.381-4.763a14.739,14.739,0,0,0,8.48,3.543c1.8,0,2.962-.7,2.962-1.917,0-3.95-12.314-1.568-12.314-9.874,0-4.356,3.717-7.144,9.351-7.144a18,18,0,0,1,9.351,2.614l-2.323,4.821C266.692,113.241,263.556,112.137,261.639,112.137Z" transform="translate(-203.381 -107.2)"/>
      <path id="Path_25" data-name="Path 25" class="cls-3" d="M309.97,107.6v4.879H297.6v4.356h11.152v4.821l-11.152.058v4.414h12.72v4.879H291.5V107.6h18.47Z" transform="translate(-220.232 -107.368)"/>
    </g>
    <path id="Path_26" data-name="Path 26" class="cls-4" d="M340.2,131.7h0Z" transform="translate(-126.421 -36.509)"/>
    <g id="Group_6" data-name="Group 6" transform="translate(114.224 44.948)">
      <path id="Path_27" data-name="Path 27" class="cls-2" d="M172.285,45.2V72.441h13.359v3.195H168.8V45.2Z" transform="translate(-168.8 -45.2)"/>
      <path id="Path_28" data-name="Path 28" class="cls-2" d="M207.485,45.2V75.636H204V45.2Z" transform="translate(-183.555 -45.2)"/>
      <path id="Path_29" data-name="Path 29" class="cls-2" d="M226.5,45.2l18.3,24.743V45.2h3.427V75.636h-3.543l-18.3-24.685V75.636H222.9V45.2Z" transform="translate(-191.477 -45.2)"/>
      <path id="Path_30" data-name="Path 30" class="cls-2" d="M300.22,75.694,289.01,61.231l-5.924,6.505v7.957H279.6V45.2h3.485V62.915L299.465,45.2h4.124L291.449,58.5,304.46,75.694Z" transform="translate(-215.244 -45.2)"/>
    </g>
  </g>
</svg>
