<svg xmlns="http://www.w3.org/2000/svg" viewBox="0 0 126.398 42.5">
  <defs>
    <style>
      .cls-1 {
        fill: #bfd7e9;
      }

      .cls-2 {
        fill: #f2f2f2;
      }

      .cls-3 {
        fill: #669bbc;
      }

      .cls-4 {
        fill: none;
      }
    </style>
  </defs>
  <g id="linkbase-logo-light" transform="translate(-38.6 -44.6)">
    <path id="Path_16" data-name="Path 16" class="cls-1" d="M74.86,50.84A21.171,21.171,0,1,0,81.1,65.85,21.14,21.14,0,0,0,74.86,50.84ZM59.85,85.876A19.986,19.986,0,1,1,79.836,65.891,20.018,20.018,0,0,1,59.85,85.876Z"/>
    <path id="Path_17" data-name="Path 17" class="cls-2" d="M79.548,82.712A2.08,2.08,0,0,0,76,84.18a2.07,2.07,0,0,0,.612,1.468l7.831,7.831h0a2.068,2.068,0,0,0,2.937,0,2.019,2.019,0,0,0,0-2.9Zm6.934,9.83a.789.789,0,0,1-1.142,0h0L77.509,84.71a.789.789,0,0,1,0-1.142.789.789,0,0,1,1.142,0L86.482,91.4A.788.788,0,0,1,86.482,92.541Z" transform="translate(-22.146 -22.205)"/>
    <path id="Path_18" data-name="Path 18" class="cls-2" d="M62.036,75.07l-3.1-3.059a4.9,4.9,0,0,1,6.934-6.934l3.059,3.059a4.883,4.883,0,0,1,1.346,4.323l1.224.2a6.046,6.046,0,0,0-1.713-5.425L66.767,64.18a6.143,6.143,0,0,0-8.688,8.688l3.059,3.059a6.082,6.082,0,0,0,4.323,1.795,6.225,6.225,0,0,0,1.224-.122l-.245-1.224A4.764,4.764,0,0,1,62.036,75.07Z" transform="translate(-10.466 -10.525)"/>
    <path id="Path_19" data-name="Path 19" class="cls-2" d="M68.035,71.321l2.774,2.774.9-.9-2.774-2.774a3.259,3.259,0,0,0-4.609,4.609l2.855,2.855.9-.9-2.855-2.855a2.044,2.044,0,0,1,0-2.855A1.958,1.958,0,0,1,68.035,71.321Z" transform="translate(-14.67 -14.729)"/>
    <path id="Path_20" data-name="Path 20" class="cls-2" d="M97.949,95.2A6.148,6.148,0,0,0,92.4,93.526l.245,1.224a4.894,4.894,0,0,1,4.4,1.346l3.059,3.059a4.9,4.9,0,0,1-6.934,6.934l-3.059-3.059a4.927,4.927,0,0,1-1.346-4.364l-1.224-.245a6.135,6.135,0,0,0,1.672,5.465l3.059,3.059a6.114,6.114,0,1,0,8.647-8.647Z" transform="translate(-28.922 -28.9)"/>
    <path id="Path_21" data-name="Path 21" class="cls-2" d="M101.171,109.907,98.4,107.134l-.9.9,2.774,2.774a3.2,3.2,0,0,0,2.325.938,3.375,3.375,0,0,0,2.325-.938,3.233,3.233,0,0,0,.938-2.325,3.3,3.3,0,0,0-.938-2.325l-2.855-2.855-.9.9,2.855,2.855a2.077,2.077,0,0,1,.612,1.428,1.913,1.913,0,0,1-.612,1.428A2.044,2.044,0,0,1,101.171,109.907Z" transform="translate(-34.876 -34.758)"/>
    <g id="Group_5" data-name="Group 5" transform="translate(91.705 70.133)">
      <path id="Path_22" data-name="Path 22" class="cls-3" d="M182.708,111.76a3.606,3.606,0,0,1-2.855,3.548,4.064,4.064,0,0,1,3.385,4.16c0,2.814-2.447,4.568-6.322,4.568H168.8V107.6h7.831C180.343,107.6,182.708,109.191,182.708,111.76Zm-4.4.734c0-.979-.734-1.591-1.917-1.55h-3.3v3.181h3.3C177.569,114.126,178.3,113.514,178.3,112.494Zm.489,6.444c0-1.02-.938-1.672-2.447-1.672h-3.3v3.467h3.3C177.855,120.693,178.793,120.04,178.793,118.939Z" transform="translate(-168.8 -107.437)"/>
      <path id="Path_23" data-name="Path 23" class="cls-3" d="M218.444,121.141h-7.1l-1.142,2.9h-4.4l7.056-16.437h4.4l6.893,16.437h-4.568Zm-1.264-3.3-2.243-5.873-2.284,5.873Z" transform="translate(-190.709 -107.437)"/>
      <path id="Path_24" data-name="Path 24" class="cls-3" d="M258.56,110.667c-1.02,0-1.713.367-1.713,1.142,0,2.733,8.647,1.183,8.647,7.1,0,3.345-2.977,5.058-6.607,5.058a12.541,12.541,0,0,1-7.586-2.61l1.672-3.345a10.351,10.351,0,0,0,5.955,2.488c1.264,0,2.08-.489,2.08-1.346,0-2.774-8.647-1.1-8.647-6.934,0-3.059,2.61-5.017,6.567-5.017a12.639,12.639,0,0,1,6.567,1.835l-1.631,3.385A13.015,13.015,0,0,0,258.56,110.667Z" transform="translate(-217.651 -107.2)"/>
      <path id="Path_25" data-name="Path 25" class="cls-3" d="M304.47,107.6v3.426h-8.688v3.059h7.831v3.385l-7.831.041v3.1h8.932v3.426H291.5V107.6h12.97Z" transform="translate(-241.454 -107.437)"/>
    </g>
    <path id="Path_26" data-name="Path 26" class="cls-4" d="M340.2,131.7h0Z" transform="translate(-178.587 -51.575)"/>
    <g id="Group_6" data-name="Group 6" transform="translate(91.705 44.845)">
      <path id="Path_27" data-name="Path 27" class="cls-2" d="M171.247,45.2V64.329h9.381v2.243H168.8V45.2Z" transform="translate(-168.8 -45.2)"/>
      <path id="Path_28" data-name="Path 28" class="cls-2" d="M206.447,45.2V66.572H204V45.2Z" transform="translate(-189.643 -45.2)"/>
      <path id="Path_29" data-name="Path 29" class="cls-2" d="M225.429,45.2l12.848,17.375V45.2h2.406V66.572H238.2L225.347,49.238V66.572H222.9V45.2Z" transform="translate(-200.834 -45.2)"/>
      <path id="Path_30" data-name="Path 30" class="cls-2" d="M294.079,66.613l-7.872-10.156-4.16,4.568v5.588H279.6V45.2h2.447V57.64l11.5-12.44h2.9l-8.525,9.34,9.136,12.073Z" transform="translate(-234.408 -45.2)"/>
    </g>
  </g>
</svg>
