<?xml version="1.0" encoding="utf-8"?>
<!-- Generator: Adobe Illustrator 22.1.0, SVG Export Plug-In . SVG Version: 6.00 Build 0)  -->
<svg version="1.1" id="Layer_1" xmlns="http://www.w3.org/2000/svg" xmlns:xlink="http://www.w3.org/1999/xlink" x="0px" y="0px"
	 viewBox="0 0 376 200" style="enable-background:new 0 0 376 200;" xml:space="preserve">
<style type="text/css">
	.st0{fill:#BFD7E9;}
	.st1{fill:#1E2749;}
	.st2{fill:#669BBC;}
	.st3{fill:none;}
</style>
<path class="st0" d="M127.5,59.9c-9.8-9.8-22.9-15.3-36.8-15.3s-27,5.4-36.8,15.3C44,69.7,38.6,82.8,38.6,96.7s5.4,27,15.3,36.8
	c9.8,9.8,22.9,15.3,36.8,15.3s27-5.4,36.8-15.3s15.3-22.9,15.3-36.8S137.4,69.7,127.5,59.9z M90.7,145.8c-27,0-49-22-49-49
	s22-49,49-49s49,22,49,49S117.7,145.8,90.7,145.8z"/>
<path class="st1" d="M84.7,83.6c-1-1-2.2-1.5-3.6-1.5s-2.6,0.5-3.6,1.5c-1,1-1.5,2.2-1.5,3.6c0,1.3,0.5,2.6,1.5,3.6l19.2,19.2h0
	c1,1,2.3,1.5,3.6,1.5s2.6-0.5,3.6-1.5c2-2,2-5.2,0-7.1L84.7,83.6z M101.7,107.7c-0.8,0.8-2,0.8-2.8,0h0L79.7,88.5
	c-0.4-0.4-0.6-0.9-0.6-1.4c0-0.5,0.2-1,0.6-1.4c0.8-0.8,2-0.8,2.8,0l19.2,19.2C102.5,105.7,102.5,107,101.7,107.7z"/>
<path class="st1" d="M70.4,93.5L62.8,86c-2.3-2.3-3.5-5.3-3.5-8.5c0-3.2,1.2-6.2,3.5-8.5c2.3-2.3,5.3-3.5,8.5-3.5
	c3.2,0,6.2,1.2,8.5,3.5l7.5,7.5c2.8,2.8,4,6.8,3.3,10.6l3,0.5c0.9-4.9-0.7-9.9-4.2-13.3L82,66.8c-5.9-5.9-15.4-5.9-21.3,0
	c-5.9,5.9-5.9,15.4,0,21.3l7.5,7.5c2.9,2.9,6.7,4.4,10.6,4.4c1,0,2-0.1,3-0.3l-0.6-3C77.3,97.6,73.2,96.3,70.4,93.5z"/>
<path class="st1" d="M74.8,74l6.8,6.8l2.2-2.2L77,71.8c-3.1-3.1-8.2-3.1-11.3,0c-3.1,3.1-3.1,8.2,0,11.3l7,7l2.2-2.2l-7-7
	c-1.9-1.9-1.9-5.1,0-7C69.8,72,72.9,72,74.8,74z"/>
<path class="st1" d="M113.2,97.8c-3.5-3.5-8.6-5.1-13.6-4.1l0.6,3c3.9-0.8,8,0.5,10.8,3.3l7.5,7.5c2.3,2.3,3.5,5.3,3.5,8.5
	c0,3.2-1.2,6.2-3.5,8.5c-2.3,2.3-5.3,3.5-8.5,3.5c-3.2,0-6.2-1.2-8.5-3.5l-7.5-7.5c-2.8-2.8-4-6.8-3.3-10.7l-3-0.6
	c-0.9,4.9,0.6,9.9,4.1,13.4l7.5,7.5c2.8,2.8,6.6,4.4,10.6,4.4c4,0,7.8-1.6,10.6-4.4c2.8-2.8,4.4-6.6,4.4-10.6c0-4-1.6-7.8-4.4-10.6
	L113.2,97.8z"/>
<path class="st1" d="M106.5,119.5l-6.8-6.8l-2.2,2.2l6.8,6.8c1.6,1.6,3.6,2.3,5.7,2.3c2.1,0,4.1-0.8,5.7-2.3
	c1.5-1.5,2.3-3.5,2.3-5.7c0-2.1-0.8-4.2-2.3-5.7l-7-7l-2.2,2.2l7,7c0.9,0.9,1.5,2.2,1.5,3.5c0,1.3-0.5,2.6-1.5,3.5
	C111.6,121.4,108.5,121.4,106.5,119.5z"/>
<g>
	<path class="st2" d="M202.9,117.8c0,4.2-2.7,7.6-7,8.7c5.1,1,8.3,5,8.3,10.2c0,6.9-6,11.2-15.5,11.2h-19.9v-40.3h19.2
		C197.1,107.6,202.9,111.5,202.9,117.8z M192.1,119.6c0-2.4-1.8-3.9-4.7-3.8h-8.1v7.8h8.1C190.3,123.6,192.1,122.1,192.1,119.6z
		 M193.3,135.4c0-2.5-2.3-4.1-6-4.1h-8.1v8.5h8.1C191,139.7,193.3,138.1,193.3,135.4z"/>
	<path class="st2" d="M236.8,140.8h-17.4l-2.8,7.1h-10.8l17.3-40.3h10.8l16.9,40.3h-11.2L236.8,140.8z M233.7,132.7l-5.5-14.4
		l-5.6,14.4H233.7z"/>
	<path class="st2" d="M269.1,115.7c-2.5,0-4.2,0.9-4.2,2.8c0,6.7,21.2,2.9,21.2,17.4c0,8.2-7.3,12.4-16.2,12.4
		c-6.7,0-13.8-2.5-18.6-6.4l4.1-8.2c4.1,3.6,10.4,6.1,14.6,6.1c3.1,0,5.1-1.2,5.1-3.3c0-6.8-21.2-2.7-21.2-17
		c0-7.5,6.4-12.3,16.1-12.3c5.9,0,11.9,1.8,16.1,4.5l-4,8.3C277.8,117.6,272.4,115.7,269.1,115.7z"/>
	<path class="st2" d="M323.3,107.6v8.4H302v7.5h19.2v8.3l-19.2,0.1v7.6h21.9v8.4h-32.4v-40.3H323.3z"/>
</g>
<polygon class="st3" points="340.2,131.7 348.5,131.7 348.5,131.7 340.2,131.7 "/>
<g>
	<path class="st1" d="M174.8,45.2v46.9h23v5.5h-29V45.2H174.8z"/>
	<path class="st1" d="M210,45.2v52.4h-6V45.2H210z"/>
	<path class="st1" d="M229.1,45.2l31.5,42.6V45.2h5.9v52.4h-6.1l-31.5-42.5v42.5h-6V45.2H229.1z"/>
	<path class="st1" d="M315.1,97.7l-19.3-24.9L285.6,84v13.7h-6V45.2h6v30.5l28.2-30.5h7.1L300,68.1l22.4,29.6H315.1z"/>
</g>
</svg>
